<svg viewBox="0 0 200 200" xmlns="http://www.w3.org/2000/svg">
  <defs>
    <clipPath id="sun"><rect x="64" y="56" width="72" height="70"/></clipPath>
  </defs>
  <circle cx="100" cy="100" r="97" fill="#f5b2ba"/>
  <circle cx="100" cy="100" r="84" fill="#0068ab"/>
  <g clip-path="url(#sun)">
    <circle cx="100" cy="92" r="36" fill="#f5b2ba"/>
    <g fill="#0068ab">
      <rect x="64" y="96" width="72" height="2.4"/>
      <rect x="64" y="103" width="72" height="3.4"/>
      <rect x="64" y="110.5" width="72" height="4.6"/>
    </g>
  </g>
  <rect x="52" y="124.6" width="96" height="2.8" rx="1.4" fill="#f7f3ea"/>
  <g fill="#f7f3ea">
    <g transform="translate(34 85.4) scale(0.26)">
      <path d="M58 62 C56 92 52 124 44 156 L56 156 C62 126 65 94 66 63 Z"/><path d="M60 62 C48 44 28 38 8 44 C24 48 40 54 52 64 Z"/><path d="M60 60 C46 50 24 52 10 66 C26 62 44 62 56 68 Z"/><path d="M62 60 C52 38 34 26 14 26 C30 34 46 46 56 62 Z"/><path d="M62 58 C60 36 70 16 88 8 C78 24 72 42 70 60 Z"/><path d="M64 60 C74 42 94 34 114 40 C98 44 80 52 70 64 Z"/><path d="M64 62 C78 52 100 54 112 68 C96 64 78 64 68 70 Z"/><path d="M62 58 C64 40 58 20 42 10 C50 26 56 44 58 60 Z"/><circle cx="56" cy="64" r="5"/><circle cx="66" cy="66" r="5"/>
    </g>
    <g transform="translate(166 85.4) scale(-0.26 0.26)">
      <path d="M58 62 C56 92 52 124 44 156 L56 156 C62 126 65 94 66 63 Z"/><path d="M60 62 C48 44 28 38 8 44 C24 48 40 54 52 64 Z"/><path d="M60 60 C46 50 24 52 10 66 C26 62 44 62 56 68 Z"/><path d="M62 60 C52 38 34 26 14 26 C30 34 46 46 56 62 Z"/><path d="M62 58 C60 36 70 16 88 8 C78 24 72 42 70 60 Z"/><path d="M64 60 C74 42 94 34 114 40 C98 44 80 52 70 64 Z"/><path d="M64 62 C78 52 100 54 112 68 C96 64 78 64 68 70 Z"/><path d="M62 58 C64 40 58 20 42 10 C50 26 56 44 58 60 Z"/><circle cx="56" cy="64" r="5"/><circle cx="66" cy="66" r="5"/>
    </g>
  </g>
</svg>
