<svg viewBox="0 0 100 110" fill="none" xmlns="http://www.w3.org/2000/svg">
  <rect width="100" height="110" rx="20" fill="#f7f3ea"/>
  <g stroke="#009bf2">
    <path d="M50 10 C36 10 25 13 18 16 C15 17.5 13 20.5 13 24 L13 64 C13 78 25 90 43 98 C47.5 100 52.5 100 57 98 C75 90 87 78 87 64 L87 24 C87 20.5 85 17.5 82 16 C75 13 64 10 50 10 Z" stroke-width="5" stroke-linejoin="round"/>
    <g stroke-width="2.2" stroke-linejoin="round" stroke-linecap="round">
      <path d="M35 46 L35 32 L50 22 L65 32 L65 46 Z"/>
      <path d="M45 46 L45 38 L55 38 L55 46"/>
    </g>
    <line x1="32" y1="53" x2="68" y2="53" stroke-width="2"/>
    <g stroke-width="2.2" stroke-linecap="round" fill="none">
      <path d="M31 63 C35.5 58.5 41 58.5 45.5 63 C50 67.5 55.5 67.5 60 63 C64 59 68 59 69 60"/>
      <path d="M31 72 C35.5 67.5 41 67.5 45.5 72 C50 76.5 55.5 76.5 60 72 C64 68 68 68 69 69"/>
      <path d="M35 81 C39.5 76.5 45 76.5 49.5 81 C54 85.5 59.5 85.5 64 81"/>
    </g>
  </g>
  <path d="M20 28 C24 22 32 20 38 24 C32 24 26 26 22 30 Z" fill="#f5b2ba"/>
</svg>
